<svg width="27" height="20" viewBox="0 0 27 20" fill="none" xmlns="http://www.w3.org/2000/svg">
<path d="M1.73651 18.1805H0.986511H1.73651ZM12.7571 1.20616V0.456161C12.4927 0.456161 12.2479 0.595383 12.1126 0.822592L12.7571 1.20616ZM16.4307 6.60708H15.6807C15.6807 7.0213 16.0164 7.35708 16.4307 7.35708V6.60708ZM23.5367 6.60708V7.35708L23.5382 7.35708L23.5367 6.60708ZM25.3505 8.34309L24.6097 8.2256L24.6086 8.23272L25.3505 8.34309ZM23.9729 17.6018L24.7146 17.713L24.7147 17.7122L23.9729 17.6018ZM22.1591 18.952V19.702L22.162 19.702L22.1591 18.952ZM2.6549 9.67176H8.1652V8.17176H2.6549V9.67176ZM7.4152 8.92176V18.952H8.9152V8.92176H7.4152ZM8.1652 18.202H2.6549V19.702H8.1652V18.202ZM2.6549 18.202C2.57209 18.202 2.51347 18.1733 2.48794 18.1518L1.52306 19.3003C1.84199 19.5682 2.25056 19.702 2.6549 19.702V18.202ZM2.48794 18.1518C2.47673 18.1424 2.47629 18.1384 2.4791 18.1441C2.48047 18.1469 2.48239 18.1516 2.48395 18.1581C2.48552 18.1647 2.48651 18.1723 2.48651 18.1805H0.986511C0.986511 18.6304 1.20026 19.0291 1.52306 19.3003L2.48794 18.1518ZM2.48651 18.1805V9.69332H0.986511V18.1805H2.48651ZM2.48651 9.69332C2.48651 9.70148 2.48552 9.70909 2.48395 9.7157C2.48239 9.72225 2.48047 9.72694 2.4791 9.72972C2.47629 9.73542 2.47673 9.73141 2.48794 9.72199L1.52306 8.5735C1.20026 8.8447 0.986511 9.24343 0.986511 9.69332H2.48651ZM2.48794 9.72199C2.51348 9.70053 2.57209 9.67176 2.6549 9.67176V8.17176C2.25056 8.17176 1.84198 8.30557 1.52306 8.5735L2.48794 9.72199ZM8.8097 9.30533L13.4016 1.58973L12.1126 0.822592L7.52071 8.53819L8.8097 9.30533ZM12.7571 1.95616C13.5706 1.95616 14.33 2.2288 14.8723 2.68434L15.8371 1.53586C15.0015 0.833836 13.8922 0.456161 12.7571 0.456161V1.95616ZM14.8723 2.68434C15.4106 3.13662 15.6807 3.71915 15.6807 4.2924H17.1807C17.1807 3.22861 16.6766 2.24114 15.8371 1.53586L14.8723 2.68434ZM15.6807 4.2924V6.60708H17.1807V4.2924H15.6807ZM16.4307 7.35708H23.5367V5.85708H16.4307V7.35708ZM23.5382 7.35708C23.7097 7.35672 23.8764 7.38735 24.0261 7.44412L24.558 6.04156C24.2329 5.91831 23.8845 5.85636 23.5351 5.85708L23.5382 7.35708ZM24.0261 7.44412C24.1759 7.5009 24.3 7.58049 24.3944 7.67076L25.4315 6.58712C25.1822 6.34851 24.883 6.1648 24.558 6.04156L24.0261 7.44412ZM24.3944 7.67076C24.4883 7.76069 24.5491 7.85746 24.5826 7.95048L25.9937 7.44197C25.8763 7.11615 25.6812 6.82607 25.4315 6.58712L24.3944 7.67076ZM24.5826 7.95048C24.6158 8.04263 24.624 8.13539 24.6097 8.22561L26.0912 8.46058C26.1457 8.11702 26.1115 7.76866 25.9937 7.44197L24.5826 7.95048ZM24.6086 8.23272L23.2311 17.4914L24.7147 17.7122L26.0923 8.45347L24.6086 8.23272ZM23.2312 17.4906C23.2081 17.6446 23.1143 17.8182 22.9208 17.9623L23.8165 19.1655C24.2905 18.8127 24.6262 18.3024 24.7146 17.713L23.2312 17.4906ZM22.9208 17.9623C22.7251 18.1079 22.4539 18.2009 22.1561 18.202L22.162 19.702C22.7561 19.6997 23.3447 19.5167 23.8165 19.1655L22.9208 17.9623ZM22.1591 18.202H8.1652V19.702H22.1591V18.202Z" fill="#8D8D99"/>
</svg>
